<svg xmlns="http://www.w3.org/2000/svg" width="512" height="512" viewBox="0 0 512 512">
  <defs>
    <linearGradient id="g" x1="0" y1="0" x2="512" y2="512" gradientUnits="userSpaceOnUse">
      <stop offset="0" stop-color="#00FFE0"/>
      <stop offset="1" stop-color="#00C4B0"/>
    </linearGradient>
  </defs>
  <rect width="512" height="512" rx="112" fill="#0a0a0a"/>
  <!-- G -->
  <path d="M72 256c0-75.2 56.8-136 128-136 40 0 75.2 17.6 97.6 44.8l-38.4 32C244 176.8 224 164 200 164c-48.8 0-84 40-84 92s35.2 92 84 92c28 0 49.6-12.8 62.4-28V280H212v-44h96v112c-25.6 29.6-62.4 44-108 44C128.8 392 72 331.2 72 256z" fill="url(#g)"/>
  <!-- T -->
  <path d="M320 120h152v44h-52V392H372V164H320z" fill="url(#g)"/>
</svg>
